<?xml version="1.0" encoding="utf-8"?>
<!-- Generator: Adobe Illustrator 21.1.0, SVG Export Plug-In . SVG Version: 6.00 Build 0)  -->
<svg version="1.1" id="Capa_1" xmlns="http://www.w3.org/2000/svg" xmlns:xlink="http://www.w3.org/1999/xlink" x="0px" y="0px"
	 viewBox="0 0 16 16" style="enable-background:new 0 0 16 16;" xml:space="preserve">
<style type="text/css">
	.st0{fill:#9E9E9E;}
</style>
<path class="st0" d="M13.1,11.8H2.9V4.2h10.2V11.8z M3.5,11.2h8.9V4.8H3.5V11.2z"/>
<path class="st0" d="M4.2,9.3v1.3h7.6V9.9c0,0,0.1-1.1-1.3-1.3C9.3,8.4,9.1,9,8.1,9c-0.7,0-0.6-1-2-1C5,8,4.2,9.3,4.2,9.3z"/>
<path class="st0" d="M11.2,6.7c0,0.7-0.6,1.3-1.3,1.3S8.6,7.4,8.6,6.7s0.6-1.3,1.3-1.3S11.2,6,11.2,6.7z"/>
</svg>
